<svg width="46" height="45" fill="none" xmlns="http://www.w3.org/2000/svg"><path d="M32.31 10.293c.531-.255.759-.68.835-1.19.075-.341.151-.681.53-.681.38 0 .456.34.532.68.152.766.532 1.191 1.139 1.446.835.425 1.746.51 2.657.34.38 0 .607.085.683.426.38 1.276 1.29 2.041 2.353 2.637.531.255.683.68.607 1.276-.076 1.276-.531 2.467-1.063 3.658-.38.85-.683 1.786-.835 2.722-.38 2.212-.986 4.338-1.973 6.38-.228.51-.152 1.276-.228 1.786 1.215.34 2.277.766 3.416 1.021.152 0 .303-.085.455-.17.911-.936 1.822-.936 2.733 0l1.138 1.276c.76.85.76 1.956 0 2.892-.303.34-.303.596-.227 1.02a7.89 7.89 0 0 1 .227 1.872v6.38c0 .766-.151.936-.835.936H23.05c-1.062 0-1.062 0-1.138-1.276H1.872c-.835 0-.911-.085-.911-1.02V1.02C.96.085 1.037 0 1.948 0h29.375c.835 0 .91.085.91 1.02v8.763c.077.085.077.255.077.51Zm-1.063-9.272H2.024v41.427H21.91v-6.125h-3.112c-.38 0-.76 0-.76-.595 0-.51.38-.596.76-.596h3.567c-.759-.68-1.139-1.36-.987-2.381h-6.072c-.304 0-.607-.17-.607-.596 0-.425.227-.595.607-.595h.228c1.594 0 3.188-.085 4.782 0 1.138.085 2.05-.17 2.732-1.276l.228-.256c.531-.425 1.442-.595 1.898 0 .607.68 1.138.51 1.745.256.228-.085.456-.17.684-.17.607-.17 1.214-.256 1.973-.34-.076-.681 0-1.532-.304-2.128-.607-1.36-1.138-2.722-1.442-4.168a28.623 28.623 0 0 0-.531-2.467c-.076-.425-.304-.595-.683-.595H15.61c-.152 0-.38.085-.532-.085-.152-.085-.38-.34-.38-.596 0-.17.228-.425.38-.51.152-.085.38-.085.532-.085h11.31c-.076-.17-.151-.255-.151-.34-.608-1.191-1.063-2.467-1.139-3.913-.076-.596.152-.936.607-1.191 1.063-.596 1.898-1.361 2.353-2.637.152-.34.38-.426.683-.426.608 0 1.215 0 1.898-.085.076-3.062.076-6.295.076-9.527Zm7.21 30.283c.077.085.153.256.305.34.53.681.53.851-.076 1.447-.911.935-1.746 1.871-2.657 2.807-.152.17-.38.425-.607.51-.228 0-.456-.17-.76-.34 0 .255-.075.51 0 .68l.456 2.808c.228 1.446.456 2.892.683 4.253h4.706v-4.508c0-.426.076-.766.532-.766.455 0 .531.34.531.766v4.593h2.809V37.43c0-.595-.152-1.276-.38-1.871-1.063-2.722-3.112-3.913-5.541-4.254Zm-9.487-.17a7.74 7.74 0 0 0-3.188 1.191c-1.746 1.276-2.809 2.977-2.733 5.36v5.953h2.809V39.13c0-.425.076-.85.531-.85.456 0 .531.425.531.85v4.51h4.63c.38-2.382.835-4.764 1.215-7.146 0-.17-.076-.425-.076-.765-.38.425-.683.765-1.063.34-1.062-1.106-2.125-2.212-3.188-3.403a.615.615 0 0 1 0-.85c.076-.085.228-.34.532-.68Zm8.35-19.055c-1.367-.085-2.657-.34-3.644-1.53-1.063 1.02-1.063 1.02-3.644 1.53.076.17.076.34.152.51.304 1.107.304 2.298-.152 3.318-.151.256-.379.51-.607.596-.683.34-1.442.595-2.125.936.455 1.19.455 1.19 1.594 1.19h9.716c.759 0 1.214-.255 1.442-1.105v-.17c-.683-.256-1.442-.51-2.05-.851-.227-.085-.53-.34-.607-.596-.607-1.19-.531-2.466-.076-3.828Zm-8.426 10.974c.076.255.076.51.152.765.531 1.872 1.138 3.658 2.505 5.02 1.29 1.275 2.732 1.275 4.023.084 1.67-1.53 2.277-3.657 2.808-5.87-3.112 2.128-6.224 2.128-9.488 0Zm10.323-3.148H28.211c.228.851.607 1.532 1.214 2.042 1.29 1.191 2.809 1.531 4.403 1.531 1.594 0 3.036-.425 4.25-1.616.532-.51.987-1.19 1.139-1.956Zm-4.478 23.819c-.304-2.042-.683-3.998-.987-6.04h-.076c-.304 2.042-.683 3.998-.987 6.04h2.05Zm-4.023-14.206c-.152.51 0 .766.38 1.02.758.596 1.517 1.192 2.2 1.787.228.17.38.255.608 0 .759-.68 1.594-1.276 2.429-1.956.303-.256.303-.51.227-.851-1.897 1.871-3.795 1.871-5.844 0Zm2.2 3.998c-.91-.765-1.82-1.446-2.656-2.212-.303.34-.531.68-.835 1.021.835.85 1.67 1.701 2.505 2.637.304-.51.607-.936.987-1.446Zm2.506 1.446c.835-.936 1.67-1.786 2.505-2.637-.304-.34-.532-.68-.835-1.02-.911.765-1.746 1.446-2.657 2.211.304.51.607.936.987 1.446ZM29.349 12.93a64.937 64.937 0 0 0-2.353 2.042.692.692 0 0 0-.151.425c0 .34.151.68.151 1.106.608-.255 1.063-.51 1.594-.68.532-.17.76-.596.76-1.107.075-.68 0-1.275 0-1.786Zm8.805 0c-.227.68-.227 1.446 0 2.212.076.17.152.34.228.34.683.255 1.366.596 2.05.85.075-.425.151-.765.151-1.105 0-.085-.076-.34-.151-.425a34.749 34.749 0 0 1-2.278-1.872ZM25.023 31.39c-.38-.511-.683-.511-1.139 0l-1.138 1.275c-.456.51-.38.851 0 1.276l2.277-2.552Zm19.507 2.55c.38-.425.456-.765 0-1.276-.38-.425-.759-.935-1.214-1.36-.38-.426-.76-.426-1.063.084l2.277 2.552Zm-10.854.426c-.531.595-.531.68 0 1.19.152-.255.228-.425.304-.68a1.81 1.81 0 0 0-.304-.51Z" fill="#000"/><path d="M10.316 40.289H7.052c-.607 0-.759-.17-.759-.85v-6.721c0-.68.152-.85.759-.85h6.604c.607 0 .759.17.759.85v6.72c0 .68-.152.85-.76.85h-3.34Zm3.036-7.23H7.356v6.039h5.996v-6.04ZM10.316 7.281h3.34c.607 0 .759.17.759.85v6.721c0 .68-.152.85-.76.85H7.053c-.607 0-.759-.17-.759-.85V8.217c0-.68.152-.85.759-.85 1.063-.086 2.201-.086 3.264-.086Zm3.036 1.191H7.356v6.04h5.996v-6.04Zm-3.034 19.483h-3.34c-.607 0-.76-.17-.76-.85v-6.721c0-.68.153-.85.76-.85h6.604c.683 0 .759.17.759.85v6.635c0 .68-.152.85-.76.85-1.062.086-2.2.086-3.263.086ZM7.28 26.764h5.997v-6.04H7.28v6.04Zm16.323-16.507h-5.92c-.152 0-.38.085-.456-.085-.152-.17-.38-.34-.38-.595 0-.17.228-.426.38-.51.152-.086.304-.086.456-.086H29.6c.151 0 .303-.085.455 0 .152.17.456.34.38.51 0 .17-.228.426-.38.596-.076.085-.303 0-.455 0-1.974.17-4.023.17-5.997.17Zm.007 2.383h2.885c.38 0 .683.086.683.596s-.304.595-.683.595h-5.769c-.38 0-.683-.085-.683-.595 0-.425.304-.595.683-.595h2.884Zm.07 12.339h2.81c.379 0 .682.085.682.595s-.303.595-.683.595h-5.693c-.38 0-.683-.085-.683-.51 0-.51.304-.595.683-.595.987-.085 1.898-.085 2.885-.085Z" fill="#000"/><path d="M9.553 36.632c.607-.766 1.215-1.361 1.746-2.042.228-.255.531-.51.835-.17.38.34.152.68-.152 1.02l-1.973 2.212c-.38.426-.608.426-1.063 0-.228-.255-.455-.425-.607-.68a.615.615 0 0 1 0-.85c.227-.256.531-.256.759 0 .152.084.303.254.455.51Zm.001-24.668c.683-.766 1.214-1.447 1.822-2.042.227-.255.53-.51.834-.17.304.34.152.68-.076.936l-2.049 2.296c-.304.34-.607.34-.91 0l-.684-.765a.615.615 0 0 1 0-.85c.228-.256.531-.256.76 0 .075.17.15.425.303.595Zm.004 12.334c.683-.766 1.214-1.361 1.745-2.042.228-.34.532-.51.835-.17.304.34.152.68-.152.936-.683.765-1.29 1.53-1.973 2.211-.38.426-.607.426-.987 0-.227-.255-.455-.425-.607-.68-.228-.255-.304-.596 0-.85.228-.256.531-.171.76.084.15.085.227.255.379.51Z" fill="#FFB902"/></svg>