<svg width="25" height="26" fill="none" xmlns="http://www.w3.org/2000/svg"><g clip-path="url(#a)"><path d="M0 12.813c0 6.903 5.596 12.5 12.5 12.5S25 19.715 25 12.813c0-6.904-5.596-12.5-12.5-12.5S0 5.909 0 12.813Z" fill="red"/><path d="M18.438 9.766a1.547 1.547 0 0 0-1.094-1.094c-.938-.235-4.922-.235-4.922-.235s-3.906 0-4.922.235a1.547 1.547 0 0 0-1.094 1.094c-.156 1.015-.156 3.046-.156 3.046s0 2.032.234 3.047c.157.547.547.938 1.094 1.094.938.235 4.922.235 4.922.235s3.906 0 4.922-.235a1.547 1.547 0 0 0 1.094-1.094c.234-1.015.234-3.046.234-3.046s0-2.032-.313-3.047Zm-7.188 4.921v-3.75l3.281 1.876-3.281 1.874Z" fill="#fff"/></g><defs><clipPath id="a"><path fill="#fff" transform="translate(0 .313)" d="M0 0h25v24.874H0z"/></clipPath></defs></svg>