<svg width="25" height="25" fill="none" xmlns="http://www.w3.org/2000/svg"><path d="M0 12.437c0 6.868 5.596 12.437 12.5 12.437S25 19.305 25 12.437C25 5.568 19.404 0 12.5 0S0 5.568 0 12.437Z" fill="#25D366"/><path fill-rule="evenodd" clip-rule="evenodd" d="M16.875 8.007A6.16 6.16 0 0 0 12.5 6.219c-3.438 0-6.25 2.798-6.25 6.218 0 1.088.313 2.177.86 3.11l-.86 3.108 3.281-.855c.938.467 1.953.778 2.969.778 3.438 0 6.25-2.798 6.25-6.219 0-1.632-.703-3.187-1.875-4.352Zm-4.375 9.56c-.938 0-1.875-.233-2.656-.7l-.156-.077-1.954.544.547-1.865-.156-.234a4.982 4.982 0 0 1-.781-2.72c0-2.798 2.343-5.13 5.156-5.13 1.406 0 2.656.544 3.672 1.477 1.015 1.01 1.484 2.254 1.484 3.653 0 2.72-2.265 5.052-5.156 5.052Zm2.813-3.886c-.157-.078-.938-.467-1.094-.467-.156-.077-.235-.077-.313.078-.078.156-.39.467-.469.622-.078.078-.156.078-.312.078-.156-.078-.625-.233-1.25-.778-.469-.388-.781-.932-.86-1.088-.078-.155 0-.233.079-.31l.234-.234c.078-.078.078-.155.156-.233.079-.078 0-.155 0-.233 0-.078-.312-.855-.468-1.166-.079-.233-.235-.233-.313-.233h-.312c-.079 0-.235 0-.391.155-.156.155-.547.544-.547 1.322 0 .777.547 1.476.625 1.632.078.077 1.094 1.71 2.656 2.332 1.329.544 1.563.388 1.875.388.313 0 .938-.388 1.016-.7.156-.388.156-.699.078-.699-.078-.388-.234-.388-.39-.466Z" fill="#fff"/></svg>