<svg width="25" height="25" fill="none" xmlns="http://www.w3.org/2000/svg"><mask id="a" style="mask-type:luminance" maskUnits="userSpaceOnUse" x="0" y="0" width="25" height="25"><path d="M25 12.437C25 5.568 19.404 0 12.5 0S0 5.568 0 12.437c0 6.868 5.596 12.437 12.5 12.437S25 19.305 25 12.437Z" fill="#fff"/></mask><g mask="url(#a)"><path d="M25 .002H0v24.873h25V.002Z" fill="#fff"/><path d="M25 12.438c6.904 0 12.5-5.568 12.5-12.437 0-6.868-5.596-12.436-12.5-12.436S12.5-6.867 12.5 0c0 6.869 5.596 12.437 12.5 12.437Z" fill="#ED143B"/><path d="M15.444 11.87H8.058V8.96h7.386c.431 0 .731.075.882.206.15.13.244.373.244.727v1.044c0 .373-.093.615-.244.746-.15.13-.45.186-.882.186Zm.507-5.65H4.926v12.435h3.132V14.61h5.773l2.739 4.046h3.507l-3.02-4.065c1.114-.164 1.614-.504 2.026-1.063.412-.56.62-1.454.62-2.648v-.933c0-.708-.076-1.267-.208-1.696a2.825 2.825 0 0 0-.675-1.137 3.055 3.055 0 0 0-1.163-.69c-.45-.13-1.013-.205-1.706-.205Z" fill="#100943"/></g></svg>