<svg width="16" height="15" fill="none" xmlns="http://www.w3.org/2000/svg"><g clip-path="url(#a)"><path d="M0 7.109V.602C0 .256.05.207.403.207h11.171c.288 0 .576 0 .864.008.016 0 .033.008.05.017a.17.17 0 0 1 .057.263c-.008.008-.017.016-.025.016-.37.28-.748.56-1.135.823-.09.066-.239.082-.354.082-2.032.009-4.063.009-6.087.009H1.472c-.246 0-.263.016-.263.246v10.875c0 .19.066.247.255.247 2.559-.008 5.109 0 7.667 0h3.134c.305 0 .305 0 .305-.312 0-2.534 0-5.076-.009-7.61 0-.28.058-.51.255-.715.206-.214.387-.461.593-.683a.25.25 0 0 1 .107-.074.177.177 0 0 1 .246.09.337.337 0 0 1 .033.124c.009 1.744.009 3.48.009 5.223v4.813c0 .296-.066.362-.354.362H.403c-.337 0-.395-.05-.395-.387 0-2.164 0-4.335-.008-6.515Z" fill="#000"/></g><defs><clipPath id="a"><path fill="#fff" transform="translate(0 .207)" d="M0 0h16v14.437H0z"/></clipPath></defs></svg>