<svg width="16" height="15" fill="none" xmlns="http://www.w3.org/2000/svg"><g clip-path="url(#a)"><path d="M0 7.734V1.227C0 .88.05.832.403.832h11.171c.288 0 .576 0 .864.008.016 0 .033.008.05.017a.17.17 0 0 1 .057.263c-.008.008-.017.016-.025.016-.37.28-.748.56-1.135.823-.09.066-.239.082-.354.082C9 2.05 6.968 2.05 4.944 2.05H1.472c-.246 0-.263.016-.263.246v10.875c0 .19.066.247.255.247 2.559-.008 5.109 0 7.667 0h3.134c.305 0 .305 0 .305-.312 0-2.534 0-5.076-.009-7.61 0-.28.058-.51.255-.715.206-.214.387-.461.593-.683a.25.25 0 0 1 .107-.074.177.177 0 0 1 .246.09.337.337 0 0 1 .033.124c.009 1.744.009 3.48.009 5.223v4.813c0 .296-.066.362-.354.362H.403c-.337 0-.395-.05-.395-.387 0-2.164 0-4.335-.008-6.515Z" fill="#000"/><path d="M4.032 4.08c.338-.016.56.182.765.387.732.724 1.456 1.456 2.188 2.189.214.214.223.222.42-.017.97-1.168 2.007-2.27 3.159-3.266a32.765 32.765 0 0 1 2.303-1.81c.749-.534 1.555-1.011 2.443-1.3a.914.914 0 0 1 .33-.049c.32.025.46.272.287.543a1.909 1.909 0 0 1-.403.453c-1.094.97-2.073 2.048-3.002 3.167a36.499 36.499 0 0 0-3.365 4.705c-.362.61-.7 1.234-1.036 1.86-.288.542-.774.764-1.292.526-.18-.082-.345-.263-.452-.436-.296-.494-.551-1.012-.815-1.53-.411-.79-.83-1.58-1.242-2.377-.304-.576-.617-1.144-.888-1.736a1.396 1.396 0 0 1-.115-.683c.04-.411.329-.625.715-.625Z" fill="#38673D"/></g><defs><clipPath id="a"><path fill="#fff" transform="translate(0 .207)" d="M0 0h16v14.437H0z"/></clipPath></defs></svg>