<svg width="149" height="81" fill="none" xmlns="http://www.w3.org/2000/svg"><path d="M148.302 74.953c0 3.204-2.257 5.805-5.952 5.805H6.303C2.6 80.741.352 78.191.352 74.953V23.11c0-3.213 2.248-5.814 5.951-5.814H142.35c3.695 0 5.952 2.601 5.952 5.814v51.844Z" fill="#6FB467"/><path d="M145.668 72.659a5.546 5.546 0 0 1-.393 2.224 5.48 5.48 0 0 1-1.246 1.873 5.38 5.38 0 0 1-1.886 1.2 5.29 5.29 0 0 1-2.201.32H8.71c-3.586 0-5.734-2.507-5.734-5.617V28.404a5.554 5.554 0 0 1 .398-2.226 5.478 5.478 0 0 1 1.248-1.872 5.37 5.37 0 0 1 1.886-1.199 5.302 5.302 0 0 1 2.202-.321h131.232a5.307 5.307 0 0 1 2.2.324c.703.262 1.345.67 1.884 1.2a5.506 5.506 0 0 1 1.642 4.094v44.255Z" fill="#292660"/><path d="M145.652 29.721H93.426v9.613h52.226V29.72Z" fill="url(#a)"/><path d="M145.46 42.13h-19.552v27.367h19.552V42.13Z" fill="url(#b)"/><path d="M93.368 29.747h8.91v9.595h-8.91v-9.595ZM9.646 69.845V28.2h11.46v41.645H9.646Zm18.716 0V28.2h16.951c4.096 0 7.191.819 9.287 2.456a10.94 10.94 0 0 1 4.004 5.227c.512 1.55.794 3.168.836 4.802 0 3.536-.836 6.286-2.508 8.253a14.063 14.063 0 0 1-6.102 4.25l11.493 16.657H48.515l-8.693-13.751v13.751h-11.46Zm11.46-22.888h2.791c1.906 0 3.28-.456 4.121-1.368a4.865 4.865 0 0 0 1.262-3.45 4.825 4.825 0 0 0-.302-1.829 4.763 4.763 0 0 0-.968-1.571c-.836-.918-2.215-1.369-4.113-1.369h-2.791v9.587Zm27.7 22.931V29.832H88.93v9.612H77.511v6.009h10.34v9.204H77.51v15.23h-9.989Zm25.846-27.631h8.91v27.63h-8.91v-27.63Zm11.409 27.631 10.816-14.772-9.019-12.859h10.867l3.928 7.37 4.046-7.37h10.399l-9.271 12.987 9.63 14.652h-10.34l-5.015-9.043-5.25 9.043-10.791-.008Z" fill="#fff"/><path d="M136.281 33.002v.91h1.037c.435 0 .585-.094.585-.502 0-.408-.401-.408-.777-.408h-.845Zm1.464 1.64.953 1.64h-.995l-.837-1.64h-.585v1.64h-.835v-3.985h1.888c.362-.03.724.034 1.054.186a1.19 1.19 0 0 1 .468 1.071c0 .731-.376 1.029-1.071 1.114l-.04-.026Zm-.837-3.238a2.89 2.89 0 0 0-1.625.501 2.96 2.96 0 0 0-1.077 1.335 3.015 3.015 0 0 0 .633 3.242c.41.416.931.7 1.499.814a2.875 2.875 0 0 0 1.689-.17 2.94 2.94 0 0 0 1.314-1.095 3.012 3.012 0 0 0 .493-1.652 3 3 0 0 0-.216-1.143 2.946 2.946 0 0 0-.634-.968 2.892 2.892 0 0 0-2.076-.864Zm0 6.655a3.571 3.571 0 0 1-2.01-.62 3.671 3.671 0 0 1-1.334-1.652 3.742 3.742 0 0 1-.206-2.126c.14-.714.485-1.37.991-1.885a3.606 3.606 0 0 1 1.853-1.007 3.563 3.563 0 0 1 2.091.21c.661.278 1.227.75 1.625 1.355a3.729 3.729 0 0 1-.45 4.647 3.616 3.616 0 0 1-1.175.798c-.439.185-.909.28-1.385.28Z" fill="#F1F1F2"/><path d="M9.488 22.455c-2.332-11.9 4.28-20.262 21.281-19.234C40.064 3.52 43.307 0 43.307 0c.125 10.496-.836 22.786-17.227 22.675-13.416-.085-16.592-.22-16.592-.22Z" fill="#fff"/><path d="M9.972 21.817C7.766 11.712 14.026 4.598 30.125 5.473c8.81.247 11.861-2.745 11.861-2.745.117 8.924-.835 19.37-16.324 19.276-12.68-.068-15.69-.187-15.69-.187Z" fill="#3A683C"/><path d="M9.613 21.358C7.406 11.253 13.667 4.14 29.783 5.014c8.81.247 12.287-2.464 12.287-2.464.117 8.924-2.591 19.03-16.718 19.03-12.73-.035-15.739-.222-15.739-.222Z" fill="url(#c)"/><path d="M9.672 21.307c3.519-6.06 10.615-7.895 19.902-8.635 9.286-.74 12.254-9.544 12.254-9.544s.108-.204.15-.298v-.195S38.526 5.38 29.716 5.099c-16.108-.85-22.368 6.273-20.17 16.387h.293l-.167-.179Z" fill="url(#d)"/><defs><radialGradient id="c" cx="0" cy="0" r="1" gradientUnits="userSpaceOnUse" gradientTransform="matrix(126.717 0 0 121.552 172.764 67.773)"><stop stop-color="#fff"/><stop offset=".39" stop-color="#9DC34D"/><stop offset=".87" stop-color="#38673D"/></radialGradient><radialGradient id="d" cx="0" cy="0" r="1" gradientUnits="userSpaceOnUse" gradientTransform="matrix(21.808 0 0 22.1741 10.533 17.906)"><stop stop-color="#fff"/><stop offset=".39" stop-color="#9DC34D"/><stop offset="1" stop-color="#3A683C"/></radialGradient><linearGradient id="a" x1=".352" y1="40.415" x2="148.302" y2="40.415" gradientUnits="userSpaceOnUse"><stop stop-color="#00ACEC"/><stop offset=".44" stop-color="#32338E"/><stop offset=".99" stop-color="#292660"/></linearGradient><linearGradient id="b" x1=".352" y1="40.379" x2="148.363" y2="40.379" gradientUnits="userSpaceOnUse"><stop stop-color="#00ACEC"/><stop offset=".44" stop-color="#32338E"/><stop offset=".99" stop-color="#292660"/></linearGradient></defs></svg>