<svg width="70" height="70" fill="none" xmlns="http://www.w3.org/2000/svg"><path d="M41.816 27.97c0 .795-.695 1.44-1.553 1.44-.857 0-1.552-.645-1.552-1.44 0-.796.695-1.44 1.552-1.44.858 0 1.553.644 1.553 1.44ZM28.5 36.41c1.584.799 3.472 1.223 5.428 1.223.406 0 .816-.018 1.225-.056a13.158 13.158 0 0 0 4.06-1.02 1.18 1.18 0 0 0 .608-1.549 1.17 1.17 0 0 0-1.537-.612c-1.027.448-2.146.73-3.336.836-1.962.18-3.871-.153-5.406-.925a1.16 1.16 0 0 0-1.567.524 1.181 1.181 0 0 0 .524 1.58Zm.234-8.44c0 .795-.695 1.44-1.553 1.44-.857 0-1.552-.645-1.552-1.44 0-.796.695-1.44 1.552-1.44.858 0 1.553.644 1.553 1.44Zm-.134-2.127a1.167 1.167 0 0 0 1.556-.562c.277-.59.026-1.29-.556-1.57-1.356-.642-3.453-.648-4.823-.003a1.179 1.179 0 0 0-.565 1.564c.272.59.968.848 1.553.569.74-.345 2.105-.345 2.836.002Zm14.632-.566c.275-.59.023-1.29-.561-1.567-1.366-.639-3.456-.645-4.824 0a1.178 1.178 0 0 0-.564 1.564c.272.59.967.848 1.552.569.742-.348 2.108-.348 2.845 0 .16.073.327.112.496.112.436 0 .857-.25 1.056-.678Z" fill="#111963"/><path d="M69.958 68.415c-3.72-13.937-14.805-14.25-18.135-14.008-.439-1.08-1.38-2.797-3.292-4.32 3.657-2.242 6.827-5.956 6.827-12.154v-5.075c1.587-.515 2.76-1.979 2.76-3.762V23.65c0-1.805-1.202-3.275-2.816-3.77C54.735 8.826 45.286 0 33.721 0 22.243 0 12.85 8.694 12.154 19.63a4.078 4.078 0 0 0-2.927 3.922v5.64c0 2.26 1.807 4.099 4.029 4.099.646 0 1.17-.555 1.17-1.24 0-.062-.027-.115-.033-.174.009-.059.032-.112.032-.174V20.92c0-10.17 8.654-18.443 19.296-18.443 10.641 0 19.294 8.272 19.294 18.443v17.01c0 10.083-10.094 12.384-14.012 12.895-.427-.635-1.114-1.079-1.932-1.079h-3.19a2.375 2.375 0 0 0-2.368 2.37v.188a2.377 2.377 0 0 0 2.368 2.37h3.19a2.37 2.37 0 0 0 2.145-1.399c.95-.133 2.243-.378 3.687-.784l-7.906 7.968L24.406 49.79v-2.797c1.081.732 2.228 1.383 3.482 1.854a1.1 1.1 0 0 0 .391.071c.483 0 .932-.319 1.102-.828.217-.644-.102-1.354-.71-1.58-5.666-2.125-9.473-7.585-9.473-13.584V18.257c3.334-.369 6.143-2.26 7.643-4.927 3.241 7.655 11.53 11.64 19.549 11.64.895 0 1.772-.127 2.651-.226v11.568c0 5.122-2.812 8.164-9.404 10.176-.623.19-.98.877-.801 1.535.149.546.616.9 1.125.9.106 0 .214-.016.322-.05 4.765-1.452 11.1-4.335 11.1-12.558V23.463c0-.04-.017-.074-.023-.115-.003-.05.012-.093.006-.142-.012-.069-.047-.122-.067-.186-.009-.022-.015-.044-.024-.062-.204-.53-.727-.874-1.251-.775-9.197 1.603-20.213-2.958-22.011-13.1 0-.019.005-.037.005-.056 0-.685-.526-1.24-1.169-1.24s-1.169.555-1.169 1.24c0 3.786-3.432 6.865-7.648 6.865-.646 0-1.169.555-1.169 1.24v15.797c0 4.67 1.976 9.026 5.207 12.173v4.53c-2.324 1.615-3.409 3.59-3.894 4.78-3.333-.238-14.413.075-18.13 14.01-.179.657.183 1.345.804 1.531.108.031.213.047.318.047.512 0 .98-.357 1.126-.902 3.484-13.07 14.047-12.452 16.129-12.185L30.029 68.83c.242.248.573.366.9.347.334-.025.64-.201.842-.483l3.226-4.487 3.234 4.48c.202.282.508.456.842.483.336.025.66-.099.9-.347l11.604-11.918c2.07-.264 12.64-.884 16.13 12.185.147.546.615.902 1.126.902.106 0 .21-.015.319-.046.617-.186.98-.871.804-1.532h.002ZM11.57 29.192v-5.64c0-.456.2-.866.518-1.16v7.96a1.574 1.574 0 0 1-.518-1.16Zm44.206-.096c0 .39-.167.738-.421 1.007V22.64c.254.27.42.617.42 1.008v5.448ZM30.707 66.073 20.313 55.395c.321-.803 1.108-2.239 2.795-3.494l10.326 10.4-2.726 3.772Zm8.58 0L36.564 62.3l10.33-10.4c1.683 1.256 2.47 2.692 2.791 3.495L39.288 66.073Z" fill="#111963"/></svg>