<svg width="57" height="57" fill="none" xmlns="http://www.w3.org/2000/svg"><path d="M57 15.846a4.807 4.807 0 0 0-4.807-4.807h-6.716c-1.868 0-3.187-2.73-3.187-4.6a6.44 6.44 0 0 0-12.881 0v3.68a.92.92 0 0 1-1.84 0v-3.68a6.44 6.44 0 0 0-12.881 0c0 1.876-1.31 4.6-3.187 4.6H4.824A4.824 4.824 0 0 0 0 15.863v6.663c0 .762.618 1.38 1.38 1.38.762 0 1.38.618 1.38 1.38V52a5 5 0 0 0 5 5h41.48a5 5 0 0 0 5-5V25.286c0-.762.618-1.38 1.38-1.38a1.38 1.38 0 0 0 1.38-1.38v-6.68ZM31.26 6.45c0-2.536 2.064-4.6 4.6-4.6 2.536 0 4.6 2.064 4.6 4.6a4.6 4.6 0 0 1-9.2 0Zm-14.71 0c0-2.536 2.064-4.6 4.6-4.6 2.536 0 4.6 2.064 4.6 4.6a4.6 4.6 0 0 1-4.6 4.599c-2.536-.011-4.6-2.075-4.6-4.6ZM6.432 22.066a4.594 4.594 0 1 1 0-9.187h12.872a4.594 4.594 0 0 1 0 9.187H6.433ZM9.6 55.161a5 5 0 0 1-5-5V28.906a5 5 0 0 1 5-5h9.3a5 5 0 0 1 5 5v21.255a5 5 0 0 1-5 5H9.6Zm18.9 0a2.76 2.76 0 0 1-2.76-2.76V15.64a2.76 2.76 0 1 1 5.52 0V52.4a2.76 2.76 0 0 1-2.76 2.76Zm23.9-5a5 5 0 0 1-5 5h-9.3a5 5 0 0 1-5-5V28.906a5 5 0 0 1 5-5h9.3a5 5 0 0 1 5 5v21.255Zm2.76-32.689a4.594 4.594 0 0 1-4.593 4.594H37.694a4.594 4.594 0 1 1 0-9.187h12.871a4.594 4.594 0 0 1 4.594 4.594Z" fill="#111963"/></svg>