<svg width="58" height="57" fill="none" xmlns="http://www.w3.org/2000/svg"><path d="m1.011 29.938 6.112 4.447a1.076 1.076 0 0 0 1.523-.262l4.369-6.219a1.128 1.128 0 0 0-.256-1.556 1.084 1.084 0 0 0-1.53.262c-1.086 1.547-3.377 1.038-3.4-.852a23.6 23.6 0 0 1 1.795-9.334 23.135 23.135 0 0 1 9.154-10.808 22.527 22.527 0 0 1 13.636-3.328A22.628 22.628 0 0 1 45.39 7.693a23.303 23.303 0 0 1 7.428 12.103 23.624 23.624 0 0 1-.922 14.238c-.108.274-.104.58.011.851.115.272.33.485.6.594a1.093 1.093 0 0 0 1.42-.622 25.889 25.889 0 0 0 1.015-15.58A25.53 25.53 0 0 0 46.83 6.026 24.799 24.799 0 0 0 32.645.08a24.68 24.68 0 0 0-14.93 3.597A25.336 25.336 0 0 0 7.652 15.464a25.868 25.868 0 0 0-1.861 12.778c.105.975-1.026 1.696-1.82 1.12L2.278 28.13a1.079 1.079 0 0 0-1.575.22c-.175.249-.24.56-.182.86a1.115 1.115 0 0 0 .49.727Z" fill="#111963"/><path d="M56.441 39.58c-2.184-2.628-5.767-1.422-7.7-.777-.85.285-2.523.978-4.433 1.791-1.117.475-2.45-.553-2.952-1.658-1.562-3.629-5.417-2.934-8.236-2.423a14.83 14.83 0 0 1-2.643.34 10.875 10.875 0 0 1-4.37-.973 13.261 13.261 0 0 0-5.663-1.112c-3.723.07-7.394.906-10.792 2.456l-.612.256c-4.768 1.932-6.985 2.461-7.234 2.518l-.049.01a1.101 1.101 0 0 0-.822.818c-.038.161-.896 3.89 1.535 9.131 2.086 4.446 4.527 6.152 6.204 6.77v-.001a1.08 1.08 0 0 0 1.041-.17l.004-.003c.044-.036 1.387-1.121 2.418-1.733.694-.428 2.381-.7 6.51.467a49.474 49.474 0 0 0 11.699 1.705 13.431 13.431 0 0 0 4.543-.633c4.31-1.667 14.796-7.225 18.92-9.503 2.184-1.212 3.375-2.518 3.648-3.996a3.935 3.935 0 0 0-1.016-3.28Zm-1.136 2.874c-.136.75-1.043 1.622-2.545 2.456-3.463 1.929-14.353 7.736-18.64 9.376-3.01 1.145-10.585.078-14.888-1.112a20.287 20.287 0 0 0-5.303-.944 5.46 5.46 0 0 0-2.933.689c-1.34.828-3.052 1.05-4.115-.114-.887-.97-1.714-2.258-2.44-3.81a14.125 14.125 0 0 1-1.198-3.492c-.421-2.08 1.102-3.908 3.1-4.621a65.58 65.58 0 0 0 3.512-1.368l.628-.261a24.914 24.914 0 0 1 10.005-2.279 11.034 11.034 0 0 1 4.85.984 12.786 12.786 0 0 0 5.1 1.111 17.265 17.265 0 0 0 3.065-.372c3.01-.556 5.041-.761 5.85 1.111a2.39 2.39 0 0 1 .081 1.862c-.306.767-1.092 1.468-2.326 2.034-1.093.467-1.912.828-2.272.973-2.316.922-4.31.6-6.237.289l-1.06-.167a1.09 1.09 0 0 0-.816.22c-.232.18-.385.447-.424.742a1.118 1.118 0 0 0 .945 1.261c.333.045.672.1 1.01.156 2.113.34 4.506.723 7.378-.417.333-.133 1-.417 1.885-.806a9.42 9.42 0 0 0 .475-.205l1.409-.611c3.555-1.556 8.427-3.69 10.027-4.224 2.54-.85 4.32-1.111 5.342.1.66.789.568 1.277.535 1.439ZM29.637 12.082v.307c0 .683-.485 1.255-1.093 1.567a3.464 3.464 0 0 0-1.36 1.253 3.546 3.546 0 0 0-.535 1.786c-.076 2.44 2.081 3.257 3.654 3.852 1.835.694 2.392 1.05 2.31 1.94a1.531 1.531 0 0 1-1.005 1.36 3.686 3.686 0 0 1-3.238-.277 1.082 1.082 0 0 0-1.538.186 1.127 1.127 0 0 0 .183 1.564c.408.298.854.532 1.324.695.707.246 1.298.847 1.298 1.595 0 .614.489 1.112 1.092 1.112.603 0 1.092-.498 1.092-1.112v-.787c0-.416.286-.773.672-.93a3.698 3.698 0 0 0 1.61-1.257c.41-.564.656-1.233.712-1.933.262-2.734-2.136-3.64-3.72-4.24-1.698-.64-2.26-.973-2.239-1.696a1.3 1.3 0 0 1 .743-1.15 3.266 3.266 0 0 1 3.134.272 1.078 1.078 0 0 0 1.532-.335c.157-.255.206-.563.135-.855a1.11 1.11 0 0 0-.509-.694 5.767 5.767 0 0 0-.72-.388c-.747-.337-1.35-1.015-1.35-1.835 0-.614-.489-1.111-1.092-1.111-.603 0-1.092.497-1.092 1.111Z" fill="#111963"/></svg>