<svg width="57" height="57" fill="none" xmlns="http://www.w3.org/2000/svg"><path d="M34.048 23.973c0 .682-.566 1.235-1.264 1.235-.699 0-1.264-.553-1.264-1.235s.565-1.235 1.264-1.235c.698 0 1.264.553 1.264 1.235Zm-10.841 7.236c1.29.684 2.828 1.048 4.42 1.048.331 0 .665-.016.998-.048a10.284 10.284 0 0 0 3.307-.874c.48-.222.704-.815.494-1.328-.212-.515-.775-.742-1.252-.525a8.35 8.35 0 0 1-2.716.717c-1.597.154-3.152-.131-4.402-.793-.46-.252-1.042-.053-1.276.45-.235.497-.044 1.103.427 1.353Zm.188-7.236c0 .682-.565 1.235-1.264 1.235-.698 0-1.264-.553-1.264-1.235s.566-1.235 1.264-1.235c.699 0 1.264.553 1.264 1.235Zm-.106-1.822a.911.911 0 0 0 .407.096c.354 0 .7-.212.859-.578.226-.505.021-1.106-.453-1.346-1.104-.55-2.811-.555-3.927-.002-.477.235-.683.835-.46 1.34.222.505.788.727 1.264.488.603-.296 1.715-.296 2.31.002Zm11.919-.485c.224-.505.02-1.106-.457-1.343-1.112-.548-2.814-.553-3.928 0-.476.235-.683.835-.46 1.34.222.506.788.728 1.265.488.604-.298 1.716-.298 2.316 0a.928.928 0 0 0 .404.096.948.948 0 0 0 .86-.58Z" fill="#111963"/><path d="M56.965 55.71v-.001c-2.597-9.735-9.609-11.306-13.262-11.433-.899-.03-1.565-.24-2.02-1.015-.73-1.241-.854-3.275.171-4.285 1.873-1.846 3.223-4.438 3.223-8.088v-.498c0-2.167 1.935-4.122 2.22-6.27.018-.14.027-.282.027-.427v-4.436c0-.207-.02-.408-.056-.603-.392-2.064-2.236-3.89-2.783-5.918C42.512 5.42 35.635 0 27.458 0c-8.099 0-14.924 5.317-16.97 12.53-.574 2.027-2.414 3.838-2.888 5.89a3.362 3.362 0 0 0-.086.758v4.592c0 1.841 1.471 3.338 3.28 3.338.526 0 .952-.452.952-1.01v-9.063c0-8.282 7.047-15.018 15.712-15.018S43.17 8.753 43.17 17.035v13.85c0 6.907-5.817 9.33-9.563 10.173-1.122.253-2.27-.55-3.421-.55h-2.597a1.934 1.934 0 0 0-1.928 1.929v.154c0 1.06.868 1.929 1.928 1.929h2.597c.638 0 1.203-.32 1.552-.804.142-.196.263-.343.501-.38.718-.113 1.318.796.806 1.312l-3.197 3.221c-.744.75-1.957.75-2.701.001l-6.986-7.037a.992.992 0 0 1-.288-.698c0-.796.895-1.274 1.602-.91.398.206.808.39 1.233.55a.894.894 0 0 0 .32.059c.392 0 .758-.26.897-.675.176-.525-.084-1.103-.579-1.287-4.613-1.73-7.713-6.176-7.713-11.06v-9.598c0-1.336 1.116-2.437 2.35-2.952 2.009-.84 5.305-.552 6.837.996 3.317 3.35 8.194 5.075 12.955 5.075 1.156 0 2.159.828 2.159 1.984v7.252c0 4.17-2.29 6.647-7.658 8.286-.507.154-.798.714-.653 1.25.122.444.503.732.917.732a.865.865 0 0 0 .262-.041c3.88-1.182 9.039-3.53 9.039-10.225V19.105c0-.032-.014-.06-.02-.093-.002-.04.01-.076.006-.116-.01-.056-.039-.099-.055-.151-.007-.018-.012-.036-.02-.05-.166-.432-.592-.712-1.018-.632-7.476 1.303-16.427-2.395-17.916-10.621-.005-.03-.003-.061-.003-.092 0-.557-.428-1.01-.952-1.01s-.952.453-.952 1.01c0 3.083-2.795 5.59-6.228 5.59-.525 0-.952.452-.952 1.01v12.864c0 3.233 1.164 6.281 3.13 8.697.664.817 1.11 1.809 1.11 2.862 0 1.279-.672 2.437-1.537 3.379l-.061.066c-1.181 1.312-2.774 2.355-4.524 2.584-3.825.502-9.527 2.747-11.812 11.313-.145.535.15 1.095.655 1.247a.933.933 0 0 0 .26.038c.416 0 .797-.29.916-.735 2.271-8.52 8.237-9.896 11.396-9.995 1.128-.036 2.166.513 2.954 1.322l8.234 8.456a.948.948 0 0 0 .733.283.93.93 0 0 0 .686-.394c1.292-1.797 3.965-1.8 5.26-.006.164.23.414.372.685.394a.92.92 0 0 0 .734-.282l8.23-8.454c.788-.81 1.828-1.36 2.958-1.324 3.157.102 9.121 1.481 11.395 9.995.12.444.5.735.917.735a.929.929 0 0 0 .26-.039c.501-.15.797-.708.654-1.246ZM9.422 23.77v-4.592c0-.406.42-.286.42.12v4.353c0 .405-.42.525-.42.12Zm35.995-.078c0 .328-.342.237-.342-.09v-4.256c0-.327.342-.418.342-.09v4.436ZM26.3 52.01a1.859 1.859 0 0 1-2.839.208l-5.82-5.977c-.67-.689-1.063-1.406-.529-2.205.673-1.005 2.337-1.136 3.189-.277l5.811 5.853c.641.646.72 1.66.188 2.398Zm7.235.208a1.859 1.859 0 1 1-2.65-2.606l5.814-5.854c.852-.858 2.514-.727 3.185.278.534.798.141 1.516-.529 2.204l-5.82 5.978Z" fill="#111963"/></svg>